<svg id="visual" viewBox="0 0 1920 1080" width="1920" height="1080" xmlns="http://www.w3.org/2000/svg" xmlns:xlink="http://www.w3.org/1999/xlink" version="1.1"><rect x="0" y="0" width="1920" height="1080" fill="#010D26"></rect><path d="M0 799L45.7 795.3C91.3 791.7 182.7 784.3 274.2 756.2C365.7 728 457.3 679 548.8 675C640.3 671 731.7 712 823 737.7C914.3 763.3 1005.7 773.7 1097 778.8C1188.3 784 1279.7 784 1371.2 783.8C1462.7 783.7 1554.3 783.3 1645.8 779.2C1737.3 775 1828.7 767 1874.3 763L1920 759L1920 1081L1874.3 1081C1828.7 1081 1737.3 1081 1645.8 1081C1554.3 1081 1462.7 1081 1371.2 1081C1279.7 1081 1188.3 1081 1097 1081C1005.7 1081 914.3 1081 823 1081C731.7 1081 640.3 1081 548.8 1081C457.3 1081 365.7 1081 274.2 1081C182.7 1081 91.3 1081 45.7 1081L0 1081Z" fill="#011640"></path><path d="M0 805L45.7 794.2C91.3 783.3 182.7 761.7 274.2 767.2C365.7 772.7 457.3 805.3 548.8 824.5C640.3 843.7 731.7 849.3 823 829.7C914.3 810 1005.7 765 1097 746.2C1188.3 727.3 1279.7 734.7 1371.2 735.5C1462.7 736.3 1554.3 730.7 1645.8 731.5C1737.3 732.3 1828.7 739.7 1874.3 743.3L1920 747L1920 1081L1874.3 1081C1828.7 1081 1737.3 1081 1645.8 1081C1554.3 1081 1462.7 1081 1371.2 1081C1279.7 1081 1188.3 1081 1097 1081C1005.7 1081 914.3 1081 823 1081C731.7 1081 640.3 1081 548.8 1081C457.3 1081 365.7 1081 274.2 1081C182.7 1081 91.3 1081 45.7 1081L0 1081Z" fill="#032553"></path><path d="M0 913L45.7 910.7C91.3 908.3 182.7 903.7 274.2 892.5C365.7 881.3 457.3 863.7 548.8 854.7C640.3 845.7 731.7 845.3 823 842.2C914.3 839 1005.7 833 1097 845.5C1188.3 858 1279.7 889 1371.2 896.8C1462.7 904.7 1554.3 889.3 1645.8 884.2C1737.3 879 1828.7 884 1874.3 886.5L1920 889L1920 1081L1874.3 1081C1828.7 1081 1737.3 1081 1645.8 1081C1554.3 1081 1462.7 1081 1371.2 1081C1279.7 1081 1188.3 1081 1097 1081C1005.7 1081 914.3 1081 823 1081C731.7 1081 640.3 1081 548.8 1081C457.3 1081 365.7 1081 274.2 1081C182.7 1081 91.3 1081 45.7 1081L0 1081Z" fill="#043566"></path><path d="M0 962L45.7 960C91.3 958 182.7 954 274.2 946C365.7 938 457.3 926 548.8 920.8C640.3 915.7 731.7 917.3 823 920.7C914.3 924 1005.7 929 1097 935.8C1188.3 942.7 1279.7 951.3 1371.2 950.7C1462.7 950 1554.3 940 1645.8 933.3C1737.3 926.7 1828.7 923.3 1874.3 921.7L1920 920L1920 1081L1874.3 1081C1828.7 1081 1737.3 1081 1645.8 1081C1554.3 1081 1462.7 1081 1371.2 1081C1279.7 1081 1188.3 1081 1097 1081C1005.7 1081 914.3 1081 823 1081C731.7 1081 640.3 1081 548.8 1081C457.3 1081 365.7 1081 274.2 1081C182.7 1081 91.3 1081 45.7 1081L0 1081Z" fill="#044679"></path><path d="M0 1013L45.7 1015.2C91.3 1017.3 182.7 1021.7 274.2 1011.8C365.7 1002 457.3 978 548.8 969.2C640.3 960.3 731.7 966.7 823 974.5C914.3 982.3 1005.7 991.7 1097 997.2C1188.3 1002.7 1279.7 1004.3 1371.2 1002.5C1462.7 1000.7 1554.3 995.3 1645.8 985.7C1737.3 976 1828.7 962 1874.3 955L1920 948L1920 1081L1874.3 1081C1828.7 1081 1737.3 1081 1645.8 1081C1554.3 1081 1462.7 1081 1371.2 1081C1279.7 1081 1188.3 1081 1097 1081C1005.7 1081 914.3 1081 823 1081C731.7 1081 640.3 1081 548.8 1081C457.3 1081 365.7 1081 274.2 1081C182.7 1081 91.3 1081 45.7 1081L0 1081Z" fill="#03588c"></path></svg>